:SAMPLES-PER-SECOND 30
:FULLY-SPECIFIED
:DEGREES
1
root  -83.1739 37.0937 -1.08744 -177.01 66.269 -177.024
RightUpLeg  -31.2627 -7.18314 1.11726
RightLeg  15.8352 -3.81541 -3.50325
RightFoot  13.2069 1.16197 -4.88325
RightToes  -9.02219e-009 -1.59028e-015 9.93923e-017
Spine  -0.13852 -7.49793 -3.88205
Spine1  18.1399 -9.09201 11.9958
HEad  -20.3611 -6.23698 5.13472
LeftShoulder1  9.93923e-017 0 1.22299e-017
LeftArm  18.5351 45.4226 -85.4294
LeftForeArm  -34.0138 -28.784 18.1587
LeftHand  0.699926 5.33352 2.83232
RightShoulder  1.98785e-016 -4.96962e-017 1.55301e-017
RightArm  58.6704 -73.8194 39.9741
RightForeArm  -43.037 21.3419 -21.2362
RightHand  1.43231 -11.1309 -9.52621
LeftUpLeg  8.634 -20.3566 19.4386
LeftLeg  109.068 -16.7607 7.50039
LeftFoot  14.8592 1.38819 -5.41693
LeftToes  7.69435e-010 2.06924e-010 1.0715e-010
2
root  -80.8315 36.6037 -0.969119 -168.089 71.9972 -167.46
RightUpLeg  -33.3704 -3.26407 6.27358
RightLeg  25.5856 0.157287 -4.8587
RightFoot  9.43862 1.57557 -8.07061
RightToes  -9.02219e-009 -1.59028e-015 9.93923e-017
Spine  3.38549 -4.55953 1.87591
Spine1  15.5272 -4.64122 8.50602
HEad  -23.3302 -4.81638 4.67539
LeftShoulder1  9.93923e-017 0 1.22299e-017
LeftArm  -1.51272 48.1718 -81.2299
LeftForeArm  -12.3457 -12.2907 3.83268
LeftHand  0.734127 5.33489 2.75649
RightShoulder  1.98785e-016 -4.96962e-017 1.55301e-017
RightArm  34.7992 -58.9804 62.9271
RightForeArm  -38.2541 19.6711 -18.5413
RightHand  1.59074 -11.7365 -10.579
LeftUpLeg  2.01579 -14.3785 20.0876
LeftLeg  121.935 -14.8058 1.20124
LeftFoot  14.3595 -0.559937 2.5843
LeftToes  7.69435e-010 2.06924e-010 1.0715e-010
3
root  -77.5635 36.482 -0.878641 -155.413 77.5827 -154.041
RightUpLeg  -32.0294 -1.42617 10.8673
RightLeg  33.9954 4.08749 -4.24092
RightFoot  0.228423 1.26673 -10.827
RightToes  -9.02219e-009 -1.59028e-015 9.93923e-017
Spine  7.59827 -1.5297 6.44654
Spine1  12.7956 -0.662198 5.55309
HEad  -24.9455 -4.30506 3.71637
LeftShoulder1  9.93923e-017 0 1.22299e-017
LeftArm  -23.6749 51.8787 -74.2731
LeftForeArm  16.0618 0.165893 -4.65588
LeftHand  0.923972 7.18151 -5.78051
RightShoulder  1.98785e-016 -4.96962e-017 1.55301e-017
RightArm  19.6251 -37.7365 73.343
RightForeArm  -32.9672 20.6845 -19.6029
RightHand  1.67699 -11.9635 -11.4287
LeftUpLeg  -12.0967 -7.84784 16.9446
LeftLeg  131.36 -11.1442 -4.32748
LeftFoot  12.0021 -1.01699 4.55751
LeftToes  7.69435e-010 2.06924e-010 1.0715e-010
4
root  -74.2378 36.8958 -0.890358 -148.373 79.3488 -146.726
RightUpLeg  -26.4834 -4.82397 12.6744
RightLeg  35.9931 6.95443 -2.35331
RightFoot  -8.4781 0.453751 -10.6938
RightToes  -9.02219e-009 -1.59028e-015 9.93923e-017
Spine  8.99155 -0.000137952 9.53612
Spine1  11.9254 1.5503 3.04736
HEad  -23.0225 -7.24067 3.71413
LeftShoulder1  9.93923e-017 0 1.22299e-017
LeftArm  -9.56089 55.5705 -66.2441
LeftForeArm  23.5509 -2.05595 -4.00031
LeftHand  0.999263 8.96596 -17.0904
RightShoulder  1.98785e-016 -4.96962e-017 1.55301e-017
RightArm  9.81805 -23.7589 76.8228
RightForeArm  -29.5984 30.0558 -28.0306
RightHand  1.81458 -12.2519 -12.9201
LeftUpLeg  -28.1059 -6.78393 11.0251
LeftLeg  128.78 -10.7987 -4.81477
LeftFoot  10.119 0.31159 -1.4012
LeftToes  7.69435e-010 2.06924e-010 1.0715e-010
5
root  -70.574 37.6955 -0.921466 -143.9 81.6525 -142.136
RightUpLeg  -18.1597 -4.98332 12.2069
RightLeg  33.3745 8.31832 -1.0989
RightFoot  -11.3536 0.143909 -9.14711
RightToes  -9.02219e-009 -1.59028e-015 9.93923e-017
Spine  8.23622 1.73428 12.5231
Spine1  11.4145 4.5293 -2.11547
HEad  -20.1116 -10.7501 4.93085
LeftShoulder1  9.93923e-017 0 1.22299e-017
LeftArm  23.8398 59.2523 -54.589
LeftForeArm  15.165 -7.02045 -5.7611
LeftHand  0.976144 8.02253 -20.0649
RightShoulder  1.98785e-016 -4.96962e-017 1.55301e-017
RightArm  5.40393 -15.3007 76.6175
RightForeArm  -27.7894 44.5832 -41.7464
RightHand  1.83597 -12.208 -13.436
LeftUpLeg  -38.3439 -7.36756 6.50243
LeftLeg  116.884 -13.2581 -1.52453
LeftFoot  8.30746 0.406327 -1.86686
LeftToes  7.69435e-010 2.06924e-010 1.0715e-010
6
root  -66.8348 38.938 -0.910701 -122.145 85.7843 -120.192
RightUpLeg  -8.34035 0.692128 10.6078
RightLeg  26.523 7.34828 -1.10709
RightFoot  -7.42219 0.339053 -6.83228
RightToes  -9.02219e-009 -1.59028e-015 9.93923e-017
Spine  7.20397 4.0232 13.3813
Spine1  10.5827 7.7804 -8.25083
HEad  -17.5703 -12.2251 6.09024
LeftShoulder1  9.93923e-017 0 1.22299e-017
LeftArm  52.1362 63.2586 -39.5808
LeftForeArm  0.204567 -12.0682 -4.88885
LeftHand  0.979413 5.92534 -15.5565
RightShoulder  1.98785e-016 -4.96962e-017 1.55301e-017
RightArm  6.13056 -8.70003 75.7357
RightForeArm  -38.1372 56.0867 -62.2428
RightHand  1.86887 -13.0379 -11.2667
LeftUpLeg  -42.3119 -6.40495 4.00476
LeftLeg  97.827 -14.1089 5.684
LeftFoot  5.19776 -0.149468 0.981875
LeftToes  7.69435e-010 2.06924e-010 1.0715e-010
7
root  -63.1333 40.0949 -0.894887 -79.6247 88.2308 -77.7432
RightUpLeg  0.442581 4.44447 9.06124
RightLeg  19.3501 6.35873 -1.12611
RightFoot  -0.272453 0.26214 -2.50079
RightToes  -9.02219e-009 -1.59028e-015 9.93923e-017
Spine  5.84574 5.51778 12.6703
Spine1  9.74819 9.45684 -11.663
HEad  -14.4627 -12.3019 6.32035
LeftShoulder1  9.93923e-017 0 1.22299e-017
LeftArm  61.8254 66.8426 -22.4063
LeftForeArm  -5.26655 -14.1828 -2.65401
LeftHand  0.92036 5.04776 -11.1382
RightShoulder  1.98785e-016 -4.96962e-017 1.55301e-017
RightArm  6.9776 -4.25109 76.254
RightForeArm  -58.6711 61.3 -85.9831
RightHand  2.27127 -14.9909 -11.1991
LeftUpLeg  -42.4107 -6.45996 2.9753
LeftLeg  75.4053 -9.89208 12.4972
LeftFoot  2.65805 0.119638 -0.836754
LeftToes  7.69435e-010 2.06924e-010 1.0715e-010
8
root  -59.3519 40.7517 -0.890638 -60.5723 88.9735 -59.3563
RightUpLeg  6.98386 1.9404 7.10023
RightLeg  15.1779 8.27074 -0.110133
RightFoot  6.12114 -0.714706 4.05319
RightToes  -9.02219e-009 -1.59028e-015 9.93923e-017
Spine  3.09908 6.11794 11.3443
Spine1  9.28507 9.57141 -12.113
HEad  -10.9464 -11.9351 6.06928
LeftShoulder1  9.93923e-017 0 1.22299e-017
LeftArm  69.2181 69.1435 -6.70319
LeftForeArm  -8.6171 -15.7921 -0.315018
LeftHand  0.908093 5.54552 -9.06234
RightShoulder  1.98785e-016 -4.96962e-017 1.55301e-017
RightArm  7.65801 -3.49577 77.6195
RightForeArm  -69.6843 61.6555 -103.721
RightHand  2.21674 -13.9177 -13.808
LeftUpLeg  -40.1259 -8.25646 2.40173
LeftLeg  53.0928 -3.69828 11.9922
LeftFoot  1.58523 0.330969 -2.38003
LeftToes  7.69435e-010 2.06924e-010 1.0715e-010
9
root  -55.6957 40.9749 -0.902714 -36.7553 89.0896 -36.4845
RightUpLeg  10.4238 -2.48419 4.6259
RightLeg  16.7591 12.3952 1.4482
RightFoot  8.35279 -1.99137 10.6336
RightToes  -9.02219e-009 -1.59028e-015 9.93923e-017
Spine  -0.669207 6.67234 9.77009
Spine1  10.4782 9.59746 -11.7539
HEad  -9.00164 -10.8665 6.00378
LeftShoulder1  9.93923e-017 0 1.22299e-017
LeftArm  75.3671 70.2686 3.72066
LeftForeArm  -9.07379 -16.6867 1.19348
LeftHand  0.893275 5.59563 -7.99579
RightShoulder  1.98785e-016 -4.96962e-017 1.55301e-017
RightArm  8.27015 -5.48576 78.9379
RightForeArm  -68.0751 60.7666 -112.921
RightHand  1.52123 -10.4962 -14.7592
LeftUpLeg  -36.0542 -9.13035 1.57561
LeftLeg  31.0964 -1.45601 5.90948
LeftFoot  -0.524789 0.527591 -4.74541
LeftToes  7.69435e-010 2.06924e-010 1.0715e-010
10
root  -52.2091 40.7226 -0.991468 -10.2417 87.3114 -10.535
RightUpLeg  10.5081 -4.50164 2.77178
RightLeg  26.4706 14.5946 2.95408
RightFoot  5.36175 -2.23365 13.724
RightToes  -9.02219e-009 -1.59028e-015 9.93923e-017
Spine  -4.6256 7.47472 9.57745
Spine1  13.7548 10.1615 -11.6919
HEad  -8.85617 -9.242 5.96489
LeftShoulder1  9.93923e-017 0 1.22299e-017
LeftArm  79.9219 71.5238 9.4916
LeftForeArm  -9.16182 -17.4168 2.32632
LeftHand  0.834954 4.82857 -7.68661
RightShoulder  1.98785e-016 -4.96962e-017 1.55301e-017
RightArm  8.71436 -8.83443 80.281
RightForeArm  -66.3788 60.0213 -117.467
RightHand  1.08587 -8.63291 -14.5873
LeftUpLeg  -31.1639 -5.58059 0.127037
LeftLeg  12.3549 -4.4457 0.847125
LeftFoot  -4.44118 0.83915 -11.2844
LeftToes  7.69435e-010 2.06924e-010 1.0715e-010
11
root  -48.7622 39.9059 -1.13806 -11.5708 84.7733 -11.841
RightUpLeg  8.76039 -4.71123 0.966622
RightLeg  41.6237 11.8798 1.66156
RightFoot  1.40282 -1.59549 12.3943
RightToes  -9.02219e-009 -1.59028e-015 9.93923e-017
Spine  -7.62142 8.03751 10.4137
Spine1  16.9439 10.5386 -11.7977
HEad  -8.70415 -7.73778 5.53602
LeftShoulder1  9.93923e-017 0 1.22299e-017
LeftArm  87.6863 73.2601 13.5078
LeftForeArm  -15.2681 -19.2567 4.75485
LeftHand  0.834365 4.76805 -7.90071
RightShoulder  1.98785e-016 -4.96962e-017 1.55301e-017
RightArm  9.21833 -13.7628 81.695
RightForeArm  -68.2233 59.8947 -118.656
RightHand  1.08978 -8.60566 -14.8454
LeftUpLeg  -27.8944 -1.88995 -0.670893
LeftLeg  3.43029 -4.50848 -1.07334
LeftFoot  -7.0226 0.857239 -14.8817
LeftToes  7.69435e-010 2.06924e-010 1.0715e-010
12
root  -45.5064 38.6365 -1.25835 -4.65219 83.4761 -4.28401
RightUpLeg  6.24676 -4.80928 -2.15134
RightLeg  58.3529 7.86888 -5.20454
RightFoot  0.411028 -1.13581 9.6414
RightToes  -9.02219e-009 -1.59028e-015 9.93923e-017
Spine  -8.06414 7.59452 8.95979
Spine1  18.1057 9.68688 -10.9402
HEad  -9.04982 -6.21679 4.89254
LeftShoulder1  9.93923e-017 0 1.22299e-017
LeftArm  91.1897 75.0712 11.7171
LeftForeArm  -22.4374 -20.8634 6.80534
LeftHand  0.884953 5.38544 -8.36874
RightShoulder  1.98785e-016 -4.96962e-017 1.55301e-017
RightArm  9.51664 -19.753 82.6284
RightForeArm  -73.9057 60.2641 -117.713
RightHand  1.3528 -9.94113 -13.7209
LeftUpLeg  -27.7777 -2.53285 -1.58501
LeftLeg  6.84954 1.2552 0.598016
LeftFoot  -3.96646 0.838084 -10.7129
LeftToes  7.69435e-010 2.06924e-010 1.0715e-010
13
root  -42.6402 37.1123 -1.3514 11.7688 83.3395 13.6089
RightUpLeg  3.08326 -4.37883 -6.09472
RightLeg  75.4721 8.30151 -12.3344
RightFoot  0.79204 -0.921163 7.59041
RightToes  -9.02219e-009 -1.59028e-015 9.93923e-017
Spine  -5.65844 6.16741 4.22868
Spine1  18.218 7.37247 -8.27554
HEad  -12.6379 -4.43903 4.66538
LeftShoulder1  9.93923e-017 0 1.22299e-017
LeftArm  65.6145 75.738 -10.006
LeftForeArm  -16.6013 -18.5533 3.51233
LeftHand  0.906465 5.3713 -9.69778
RightShoulder  1.98785e-016 -4.96962e-017 1.55301e-017
RightArm  9.41174 -25.0769 83.0904
RightForeArm  -77.4011 61.098 -111.858
RightHand  1.77032 -12.8277 -10.3941
LeftUpLeg  -29.8173 -5.19324 -4.23079
LeftLeg  18.333 4.43073 4.85983
LeftFoot  2.67116 0.204468 -1.89192
LeftToes  7.69435e-010 2.06924e-010 1.0715e-010
